<svg width="185" height="185" viewBox="0 0 300 300" xmlns="http://www.w3.org/2000/svg" version="1.1">
    <path opacity="0.15" fill="#FF0000" d="M150,6c38.464,0,74.625,14.979,101.823,42.177C279.021,75.375,294,111.536,294,150
        s-14.979,74.625-42.177,101.823S188.464,294,150,294s-74.625-14.979-101.823-42.177C20.979,224.625,6,188.464,6,150
        S20.979,75.375,48.177,48.177C75.375,20.979,111.536,6,150,6 M150,0C67.157,0,0,67.157,0,150s67.157,150,150,150
        s150-67.157,150-150S232.843,0,150,0L150,0z"/>
    <path opacity="0.4" fill="#FF0000" d="M150,181c17.094,0,31-13.906,31-31c0-17.093-13.906-31-31-31c-17.093,0-31,13.907-31,31
        C119,167.094,132.907,181,150,181 M150,175c-13.807,0-25-11.193-25-25s11.193-25,25-25s25,11.193,25,25S163.807,175,150,175
        L150,175z"/>
    <path fill="#FF0000" d="M150,6c38.464,0,74.625,14.979,101.823,42.177C279.021,75.375,294,111.536,294,150
        s-14.979,74.625-42.177,101.823S188.464,294,150,294s-74.625-14.979-101.823-42.177C20.979,224.625,6,188.464,6,150
        S20.979,75.375,48.177,48.177C75.375,20.979,111.536,6,150,6 M150,181c17.094,0,31-13.906,31-31c0-17.093-13.906-31-31-31
        c-17.093,0-31,13.907-31,31C119,167.094,132.907,181,150,181"/>
</svg>
