<svg width="185" height="185" viewBox="0 0 300 300" xmlns="http://www.w3.org/2000/svg" version="1.1">
    <path fill="#777777" d="M150,75c-41.421,0-75,33.579-75,75c0,41.422,33.579,75,75,75c41.422,0,75-33.578,75-75
        C225,108.579,191.422,75,150,75z M150,171.5c-11.874,0-21.5-9.626-21.5-21.5s9.626-21.5,21.5-21.5s21.5,9.626,21.5,21.5
        S161.874,171.5,150,171.5z"/>
    <path fill="#333333" d="M150,296.5C69.22,296.5,3.5,230.78,3.5,150S69.22,3.5,150,3.5S296.5,69.22,296.5,150
        S230.78,296.5,150,296.5z M150,121.5c-15.715,0-28.5,12.785-28.5,28.5s12.785,28.5,28.5,28.5s28.5-12.785,28.5-28.5
        S165.715,121.5,150,121.5z"/>
    <path fill="#FFFFFF" d="M150,7c38.196,0,74.107,14.875,101.116,41.884S293,111.803,293,150c0,38.196-14.875,74.107-41.884,101.116
        S188.196,293,150,293c-38.197,0-74.107-14.875-101.116-41.884S7,188.196,7,150c0-38.197,14.875-74.107,41.884-101.116
        S111.803,7,150,7 M150,182c17.645,0,32-14.355,32-32c0-17.645-14.355-32-32-32c-17.645,0-32,14.355-32,32
        C118,167.645,132.355,182,150,182 M150,0C67.157,0,0,67.157,0,150s67.157,150,150,150s150-67.157,150-150S232.843,0,150,0L150,0z
         M150,175c-13.807,0-25-11.193-25-25s11.193-25,25-25s25,11.193,25,25S163.807,175,150,175L150,175z"/>
</svg>
